<svg width="400" height="400" viewBox="0 0 400 400" xmlns="http://www.w3.org/2000/svg">
  <rect width="400" height="400" rx="36" fill="#0A1320"/>
  <rect x="34" y="34" width="332" height="332" rx="28" fill="url(#bg)" stroke="#243549" stroke-width="2"/>
  <ellipse cx="200" cy="338" rx="126" ry="40" fill="#07111A" opacity="0.45"/>
  <circle cx="198" cy="164" r="74" fill="#F0D6C2"/>
  <path d="M126 278c16-64 45-92 72-92s58 28 72 92" fill="#0F1F33"/>
  <rect x="128" y="214" width="140" height="98" rx="28" fill="#142B41"/>
  <rect x="138" y="228" width="118" height="58" rx="18" fill="#0D1A2A"/>
  <rect x="148" y="146" width="20" height="30" rx="10" fill="#0C1320"/>
  <rect x="230" y="146" width="20" height="30" rx="10" fill="#0C1320"/>
  <path d="M160 178c14 16 34 22 48 22s34-6 48-22" stroke="#2C3F54" stroke-width="6" fill="none" stroke-linecap="round"/>
  <rect x="122" y="108" width="154" height="16" rx="8" fill="#00BFFF" opacity="0.85"/>
  <defs><linearGradient id="bg" x1="40" y1="40" x2="360" y2="360" gradientUnits="userSpaceOnUse"><stop stop-color="#0E2233"/><stop offset="1" stop-color="#09131C"/></linearGradient></defs>
</svg>
