<svg width="400" height="400" viewBox="0 0 400 400" xmlns="http://www.w3.org/2000/svg">
  <rect width="400" height="400" rx="36" fill="#060A12"/>
  <rect x="34" y="34" width="332" height="332" rx="28" fill="url(#bg)" stroke="#293A4E" stroke-width="2"/>
  <ellipse cx="200" cy="340" rx="126" ry="40" fill="#04070A" opacity="0.46"/>
  <circle cx="198" cy="160" r="74" fill="#E9CDB9"/>
  <path d="M126 278c16-58 46-86 72-86s56 28 72 86" fill="#111D2C"/>
  <rect x="128" y="214" width="144" height="98" rx="28" fill="#142538"/>
  <rect x="146" y="232" width="104" height="58" rx="18" fill="#0D1623"/>
  <path d="M160 176c12 12 30 18 38 18s28-6 38-18" stroke="#4F6B8B" stroke-width="5" fill="none" stroke-linecap="round"/>
  <rect x="120" y="112" width="154" height="14" rx="7" fill="#00BFFF" opacity="0.9"/>
  <defs><linearGradient id="bg" x1="40" y1="40" x2="360" y2="360" gradientUnits="userSpaceOnUse"><stop stop-color="#142537"/><stop offset="1" stop-color="#07111A"/></linearGradient></defs>
</svg>
