<svg width="400" height="400" viewBox="0 0 400 400" xmlns="http://www.w3.org/2000/svg">
  <rect width="400" height="400" rx="36" fill="#080D14"/>
  <rect x="34" y="34" width="332" height="332" rx="28" fill="url(#bg)" stroke="#273848" stroke-width="2"/>
  <ellipse cx="200" cy="340" rx="126" ry="40" fill="#05080D" opacity="0.4"/>
  <circle cx="198" cy="162" r="74" fill="#E9CDB9"/>
  <path d="M126 280c16-56 46-82 72-82s52 26 72 82" fill="#DDE5EE"/>
  <rect x="126" y="214" width="144" height="96" rx="28" fill="#E6EEF4"/>
  <rect x="146" y="236" width="100" height="56" rx="18" fill="#183142"/>
  <path d="M164 174c12 12 28 18 34 18s24-6 34-18" stroke="#7EA5BA" stroke-width="5" fill="none" stroke-linecap="round"/>
  <rect x="120" y="112" width="154" height="14" rx="7" fill="#DFF3FF" opacity="0.95"/>
  <defs><linearGradient id="bg" x1="40" y1="40" x2="360" y2="360" gradientUnits="userSpaceOnUse"><stop stop-color="#1E2F3A"/><stop offset="1" stop-color="#0A1118"/></linearGradient></defs>
</svg>
