<svg width="400" height="400" viewBox="0 0 400 400" xmlns="http://www.w3.org/2000/svg">
  <rect width="400" height="400" rx="36" fill="#060A12"/>
  <rect x="34" y="34" width="332" height="332" rx="28" fill="url(#bg)" stroke="#263849" stroke-width="2"/>
  <ellipse cx="200" cy="340" rx="126" ry="40" fill="#02050A" opacity="0.4"/>
  <circle cx="198" cy="160" r="74" fill="#EBC9AF"/>
  <path d="M126 280c16-58 46-84 72-84s56 26 72 84" fill="#14273A"/>
  <rect x="126" y="214" width="144" height="92" rx="28" fill="#102338"/>
  <rect x="148" y="232" width="102" height="56" rx="18" fill="#0B1826"/>
  <path d="M158 176c12 14 28 22 40 22s30-8 42-22" stroke="#4E7AA0" stroke-width="5" fill="none" stroke-linecap="round"/>
  <rect x="120" y="112" width="154" height="14" rx="7" fill="#00BFFF" opacity="0.82"/>
  <defs><linearGradient id="bg" x1="40" y1="40" x2="360" y2="360" gradientUnits="userSpaceOnUse"><stop stop-color="#122534"/><stop offset="1" stop-color="#07111A"/></linearGradient></defs>
</svg>
