<svg width="400" height="400" viewBox="0 0 400 400" xmlns="http://www.w3.org/2000/svg">
  <rect width="400" height="400" rx="36" fill="#070C14"/>
  <rect x="34" y="34" width="332" height="332" rx="28" fill="url(#bg)" stroke="#2D3B4C" stroke-width="2"/>
  <ellipse cx="200" cy="340" rx="126" ry="40" fill="#03070A" opacity="0.42"/>
  <circle cx="198" cy="162" r="74" fill="#EFC8AF"/>
  <path d="M126 276c18-60 50-88 72-88s54 28 72 88" fill="#F5F7FB"/>
  <rect x="126" y="214" width="144" height="100" rx="28" fill="#F7F9FD"/>
  <rect x="146" y="232" width="100" height="62" rx="20" fill="#0A1622"/>
  <path d="M160 178c10 16 28 24 42 24s32-8 42-24" stroke="#7C90A4" stroke-width="5" fill="none" stroke-linecap="round"/>
  <rect x="120" y="112" width="154" height="14" rx="7" fill="#00BFFF" opacity="0.9"/>
  <defs><linearGradient id="bg" x1="40" y1="40" x2="360" y2="360" gradientUnits="userSpaceOnUse"><stop stop-color="#182635"/><stop offset="1" stop-color="#07111A"/></linearGradient></defs>
</svg>
