<svg width="400" height="400" viewBox="0 0 400 400" xmlns="http://www.w3.org/2000/svg">
  <rect width="400" height="400" rx="36" fill="#06080D"/>
  <rect x="34" y="34" width="332" height="332" rx="28" fill="url(#bg)" stroke="#2A3A4A" stroke-width="2"/>
  <ellipse cx="200" cy="340" rx="126" ry="40" fill="#04070A" opacity="0.44"/>
  <circle cx="198" cy="162" r="74" fill="#E7CBB2"/>
  <path d="M126 280c16-58 48-86 72-86s56 28 72 86" fill="#F5F7FB"/>
  <rect x="126" y="214" width="144" height="92" rx="28" fill="#F3F6FA"/>
  <rect x="148" y="232" width="102" height="56" rx="18" fill="#101923"/>
  <path d="M160 176c12 12 30 18 38 18s26-6 38-18" stroke="#7A93AA" stroke-width="5" fill="none" stroke-linecap="round"/>
  <rect x="120" y="112" width="154" height="14" rx="7" fill="#00BFFF" opacity="0.78"/>
  <defs><linearGradient id="bg" x1="40" y1="40" x2="360" y2="360" gradientUnits="userSpaceOnUse"><stop stop-color="#192835"/><stop offset="1" stop-color="#060B12"/></linearGradient></defs>
</svg>
