<svg width="1080" height="680" viewBox="0 0 1080 680" xmlns="http://www.w3.org/2000/svg">
  <rect width="1080" height="680" rx="36" fill="#050A14"/>
  <rect x="42" y="42" width="996" height="596" rx="28" fill="#0D1420" stroke="#1C2A3A" stroke-width="2"/>
  <rect x="74" y="74" width="220" height="56" rx="14" fill="#0F1A27"/>
  <rect x="88" y="88" width="90" height="28" rx="8" fill="#00BFFF"/>
  <text x="194" y="108" fill="#F5F7FB" font-family="Inter,Segoe UI,sans-serif" font-size="22" font-weight="700">HELLO AI LAB</text>
  <rect x="76" y="170" width="320" height="380" rx="24" fill="#101722" stroke="#233244" stroke-width="2"/>
  <circle cx="236" cy="320" r="112" fill="#1A2A3A"/>
  <circle cx="236" cy="300" r="78" fill="#F2F5FA"/>
  <circle cx="236" cy="288" r="36" fill="#00BFFF"/>
  <rect x="152" y="370" width="168" height="92" rx="24" fill="#F2F5FA"/>
  <rect x="420" y="170" width="566" height="380" rx="24" fill="#0C141D" stroke="#243141" stroke-width="2"/>
  <text x="458" y="234" fill="#8DA0B8" font-family="Inter,Segoe UI,sans-serif" font-size="19" letter-spacing="3">EMPLOYEE CARD</text>
  <text x="458" y="308" fill="#F5F7FB" font-family="Inter,Segoe UI,sans-serif" font-size="56" font-weight="700">ATLAS</text>
  <text x="458" y="352" fill="#00BFFF" font-family="Inter,Segoe UI,sans-serif" font-size="28" font-weight="600">Strategy Director</text>
  <text x="458" y="392" fill="#A8B7C9" font-family="Inter,Segoe UI,sans-serif" font-size="24">Strategy Department</text>
  <rect x="458" y="430" width="180" height="24" rx="12" fill="#00BFFF"/>
  <text x="458" y="446" fill="#050A14" font-family="Inter,Segoe UI,sans-serif" font-size="13" font-weight="700">ACCENT: NAVY / CYAN</text>
  <rect x="458" y="482" width="104" height="36" rx="10" fill="#111A27" stroke="#1E3040"/>
  <text x="474" y="506" fill="#F2F5FA" font-family="Inter,Segoe UI,sans-serif" font-size="15">Version 1.0</text>
  <rect x="580" y="482" width="118" height="36" rx="10" fill="#111A27" stroke="#1E3040"/>
  <text x="607" y="506" fill="#F2F5FA" font-family="Inter,Segoe UI,sans-serif" font-size="15">Active</text>
  <rect x="854" y="530" width="104" height="104" rx="18" fill="#121B26" stroke="#233244" stroke-width="2"/>
  <rect x="876" y="552" width="60" height="60" rx="12" fill="#00BFFF" opacity="0.9"/>
  <text x="74" y="612" fill="#8DA0B8" font-family="Inter,Segoe UI,sans-serif" font-size="18">EMP-001</text>
  <text x="180" y="612" fill="#8DA0B8" font-family="Inter,Segoe UI,sans-serif" font-size="18">QR CODE SPACE</text>
</svg>
