<svg width="1600" height="900" viewBox="0 0 1600 900" xmlns="http://www.w3.org/2000/svg">
  <rect width="1600" height="900" rx="36" fill="#050A14"/>
  <rect x="48" y="48" width="1504" height="804" rx="28" fill="#0C1420" stroke="#223041" stroke-width="2"/>
  <text x="96" y="126" fill="#F5F7FB" font-family="Inter,Segoe UI,sans-serif" font-size="36" font-weight="700">Hello AI Lab</text>
  <text x="96" y="162" fill="#00BFFF" font-family="Inter,Segoe UI,sans-serif" font-size="18" letter-spacing="3">EMPLOYEE PORTRAIT SYSTEM</text>
  <rect x="96" y="208" width="260" height="300" rx="24" fill="#131D29" stroke="#253447"/>
  <circle cx="226" cy="320" r="86" fill="#1E2D3D"/>
  <circle cx="226" cy="304" r="58" fill="#F5F7FB"/>
  <circle cx="226" cy="292" r="26" fill="#00BFFF"/>
  <text x="136" y="500" fill="#F5F7FB" font-family="Inter,Segoe UI,sans-serif" font-size="24" font-weight="700" text-anchor="middle">CEO CHAPPY</text>
  <rect x="392" y="208" width="260" height="300" rx="24" fill="#131D29" stroke="#253447"/>
  <circle cx="522" cy="320" r="86" fill="#1E2D3D"/>
  <circle cx="522" cy="304" r="58" fill="#F5F7FB"/>
  <circle cx="522" cy="292" r="26" fill="#00BFFF"/>
  <text x="522" y="500" fill="#F5F7FB" font-family="Inter,Segoe UI,sans-serif" font-size="24" font-weight="700" text-anchor="middle">ATLAS</text>
  <rect x="688" y="208" width="260" height="300" rx="24" fill="#131D29" stroke="#253447"/>
  <circle cx="818" cy="320" r="86" fill="#1E2D3D"/>
  <circle cx="818" cy="304" r="58" fill="#F5F7FB"/>
  <circle cx="818" cy="292" r="26" fill="#00BFFF"/>
  <text x="818" y="500" fill="#F5F7FB" font-family="Inter,Segoe UI,sans-serif" font-size="24" font-weight="700" text-anchor="middle">NOAH</text>
  <rect x="984" y="208" width="260" height="300" rx="24" fill="#131D29" stroke="#253447"/>
  <circle cx="1114" cy="320" r="86" fill="#1E2D3D"/>
  <circle cx="1114" cy="304" r="58" fill="#F5F7FB"/>
  <circle cx="1114" cy="292" r="26" fill="#00BFFF"/>
  <text x="1114" y="500" fill="#F5F7FB" font-family="Inter,Segoe UI,sans-serif" font-size="24" font-weight="700" text-anchor="middle">LUNA</text>
  <rect x="1280" y="208" width="224" height="300" rx="24" fill="#131D29" stroke="#253447"/>
  <circle cx="1392" cy="320" r="86" fill="#1E2D3D"/>
  <circle cx="1392" cy="304" r="58" fill="#F5F7FB"/>
  <circle cx="1392" cy="292" r="26" fill="#00BFFF"/>
  <text x="1392" y="500" fill="#F5F7FB" font-family="Inter,Segoe UI,sans-serif" font-size="24" font-weight="700" text-anchor="middle">NOVA</text>
  <rect x="96" y="560" width="260" height="240" rx="24" fill="#131D29" stroke="#253447"/>
  <circle cx="226" cy="672" r="70" fill="#1E2D3D"/>
  <circle cx="226" cy="656" r="50" fill="#F5F7FB"/>
  <circle cx="226" cy="646" r="22" fill="#00BFFF"/>
  <text x="226" y="760" fill="#F5F7FB" font-family="Inter,Segoe UI,sans-serif" font-size="24" font-weight="700" text-anchor="middle">KAI</text>
  <rect x="392" y="560" width="260" height="240" rx="24" fill="#131D29" stroke="#253447"/>
  <circle cx="522" cy="672" r="70" fill="#1E2D3D"/>
  <circle cx="522" cy="656" r="50" fill="#F5F7FB"/>
  <circle cx="522" cy="646" r="22" fill="#00BFFF"/>
  <text x="522" y="760" fill="#F5F7FB" font-family="Inter,Segoe UI,sans-serif" font-size="24" font-weight="700" text-anchor="middle">ECHO</text>
  <rect x="688" y="560" width="260" height="240" rx="24" fill="#131D29" stroke="#253447"/>
  <circle cx="818" cy="672" r="70" fill="#1E2D3D"/>
  <circle cx="818" cy="656" r="50" fill="#F5F7FB"/>
  <circle cx="818" cy="646" r="22" fill="#00BFFF"/>
  <text x="818" y="760" fill="#F5F7FB" font-family="Inter,Segoe UI,sans-serif" font-size="24" font-weight="700" text-anchor="middle">ORION</text>
</svg>
